# xmcd
#
# Track frame offsets: 
#        150
#        18763
#        37951
#        57993
#        78903
#        94628
#        113441
#        134621
#        150658
#        170121
#        189708
#
# Disc length: 2883 seconds
#
# Revision: 0
# Processed by: cddbd v1.5.1PL2 Copyright (c) Steve Scherf et al.
# Submitted via: ExactAudioCopy v0.95a4
#
DISCID=830b410b
DTITLE=Kathy Mattea - Right Out Of Nowhere
DYEAR=2005
DGENRE=Country
TTITLE0=Right Outta Nowhere
TTITLE1=Gimme Shelter
TTITLE2=Hurt Some
TTITLE3=Love's Not Through With Me Yet
TTITLE4=Loving You, Letting You Go
TTITLE5=Live It
TTITLE6=I Hope Your're Happy Now
TTITLE7=Down On The Corner
TTITLE8=Only Heaven Knows
TTITLE9=Give It Away
TTITLE10=Wade In The Water
EXTD=
EXTT0=
EXTT1=
EXTT2=
EXTT3=
EXTT4=
EXTT5=
EXTT6=
EXTT7=
EXTT8=
EXTT9=
EXTT10=
PLAYORDER=
